HIERARCHY
ROOT hip
{
	OFFSET 0.00000 0.00000 0.00000
	CHANNELS 6 Xposition Yposition Zposition Zrotation Yrotation Xrotation 
	JOINT lhipjoint
	{
		OFFSET 0 0 0
		CHANNELS 3 Zrotation Yrotation Xrotation
		JOINT lfemur
		{
			OFFSET 1.57314 -1.85774 0.63783
			CHANNELS 3 Zrotation Yrotation Xrotation
			JOINT ltibia
			{
				OFFSET 2.57982 -7.08799 0.00000
				CHANNELS 3 Zrotation Yrotation Xrotation
				JOINT lfoot
				{
					OFFSET 2.63993 -7.25315 0.00000
					CHANNELS 3 Zrotation Yrotation Xrotation
					JOINT ltoes
					{
						OFFSET 0.16864 -0.46332 2.12791
						CHANNELS 3 Zrotation Yrotation Xrotation
						End Site
						{
							OFFSET 0.00000 -0.00000 1.09718
						}
					}
				}
			}
		}
	}
	JOINT rhipjoint
	{
		OFFSET 0 0 0
		CHANNELS 3 Zrotation Yrotation Xrotation
		JOINT rfemur
		{
			OFFSET -1.56006 -1.85774 0.63784
			CHANNELS 3 Zrotation Yrotation Xrotation
			JOINT rtibia
			{
				OFFSET -2.54246 -6.98536 0.00000
				CHANNELS 3 Zrotation Yrotation Xrotation
				JOINT rfoot
				{
					OFFSET -2.65791 -7.30256 0.00000
					CHANNELS 3 Zrotation Yrotation Xrotation
					JOINT rtoes
					{
						OFFSET -0.18435 -0.50650 2.16316
						CHANNELS 3 Zrotation Yrotation Xrotation
						End Site
						{
							OFFSET -0.00000 -0.00000 1.11780
						}
					}
				}
			}
		}
	}
	JOINT lowerback
	{
		OFFSET 0 0 0
		CHANNELS 3 Zrotation Yrotation Xrotation
		JOINT upperback
		{
			OFFSET -0.00136 1.92812 -0.29638
			CHANNELS 3 Zrotation Yrotation Xrotation
			JOINT thorax
			{
				OFFSET -0.00528 1.96223 -0.02928
				CHANNELS 3 Zrotation Yrotation Xrotation
				JOINT lowerneck
				{
					OFFSET 0 0 0
					CHANNELS 3 Zrotation Yrotation Xrotation
					JOINT upperneck
					{
						OFFSET -0.01015 1.75586 0.07797
						CHANNELS 3 Zrotation Yrotation Xrotation
						JOINT head
						{
							OFFSET 0.05540 1.72452 0.04558
							CHANNELS 3 Zrotation Yrotation Xrotation
							End Site
							{
								OFFSET 0.02170 1.79958 0.00864
							}
						}
					}
				}
				JOINT lclavicle
				{
					OFFSET 0 0 0
					CHANNELS 3 Zrotation Yrotation Xrotation
					JOINT lhumerus
					{
						OFFSET 3.16292 1.29277 -0.65728
						CHANNELS 3 Zrotation Yrotation Xrotation
						JOINT lradius
						{
							OFFSET 5.52302 -0.00000 -0.00000
							CHANNELS 3 Zrotation Yrotation Xrotation
							JOINT lwrist
							{
								OFFSET 3.58675 -0.00000 -0.00000
								CHANNELS 3 Zrotation Yrotation Xrotation
								JOINT lhand
								{
									OFFSET 0 0 0
									CHANNELS 3 Zrotation Yrotation Xrotation
									JOINT lfingers
									{
										OFFSET 0.53641 -0.00000 -0.00000
										CHANNELS 3 Zrotation Yrotation Xrotation
										End Site
										{
											OFFSET 0.43247 -0.00000 -0.00000
										}
									}
								}
								JOINT lthumb
								{
									OFFSET 0 0 0
									CHANNELS 3 Zrotation Yrotation Xrotation
									End Site
									{
										OFFSET 0.43907 -0.00000 0.43907
									}
								}
							}
						}
					}
				}
				JOINT rclavicle
				{
					OFFSET 0 0 0
					CHANNELS 3 Zrotation Yrotation Xrotation
					JOINT rhumerus
					{
						OFFSET -3.08296 1.43376 -0.52927
						CHANNELS 3 Zrotation Yrotation Xrotation
						JOINT rradius
						{
							OFFSET -5.84780 -0.00000 0.00000
							CHANNELS 3 Zrotation Yrotation Xrotation
							JOINT rwrist
							{
								OFFSET -3.62717 -0.00000 -0.00000
								CHANNELS 3 Zrotation Yrotation Xrotation
								JOINT rhand
								{
									OFFSET 0 0 0
									CHANNELS 3 Zrotation Yrotation Xrotation
									JOINT rfingers
									{
										OFFSET -0.65052 -0.00000 -0.00000
										CHANNELS 3 Zrotation Yrotation Xrotation
										End Site
										{
											OFFSET -0.52446 -0.00000 -0.00000
										}
									}
								}
								JOINT rthumb
								{
									OFFSET 0 0 0
									CHANNELS 3 Zrotation Yrotation Xrotation
									End Site
									{
										OFFSET -0.53247 -0.00000 0.53247
									}
								}
							}
						}
					}
				}
			}
		}
	}
}
MOTION
Frames: 5
Frame Time: 0.033333
4.8183 14.2117 13.4312 -20.1269 -61.6600 -17.5592 0.0000 0.0000 0.0000 -17.3745 -4.0133 -5.9265 2.6955 7.5093 23.1461 0.0270 2.0882 -2.1210 0.8771 -3.7079 -10.5762 0.0000 0.0000 0.0000 15.9944 9.3412 -5.2427 -2.9593 -7.9868 24.8003 -0.0402 -7.5459 -2.3530 -0.2952 1.9700 -5.5092 1.4049 -0.5738 7.2827 0.1604 -0.5514 1.2745 -0.6161 -0.2733 -2.5953 1.7976 0.4427 -2.5753 -1.3141 0.8914 15.5876 -0.9167 0.9176 5.1669 0.0000 0.0000 0.0000 -67.3526 -2.9656 23.5576 8.8757 -14.0191 -1.9640 0.0000 0.0000 -13.7244 31.1459 16.6408 13.3380 -5.6051 0.0000 0.0000 10.2428 44.3127 3.3266 0.0000 0.0000 0.0000 65.6734 -1.8805 12.6781 -12.6998 19.8550 -3.1244 0.0000 0.0000 11.9423 -16.1749 11.4541 -4.2556 5.6051 0.0000 0.0000 3.7391 -11.4023 2.6801
4.8016 14.1564 13.3788 -20.0108 -61.4707 -17.4518 0.0000 0.0000 0.0000 -17.3077 -3.9984 -5.9035 2.6852 7.4802 23.0565 0.0270 2.0802 -2.1120 0.8737 -3.6938 -10.5359 0.0000 0.0000 0.0000 15.9320 9.3039 -5.2221 -2.9478 -7.9555 24.7034 -0.0400 -7.5187 -2.3429 -0.2940 1.9632 -5.4902 1.4002 -0.5707 7.2543 0.1599 -0.5481 1.2693 -0.6141 -0.2717 -2.5855 1.7910 0.4436 -2.5662 -1.3103 0.8916 15.5280 -0.9136 0.9159 5.1472 0.0000 0.0000 0.0000 -67.0914 -2.9532 23.4678 8.8415 -13.9649 -1.9565 0.0000 0.0000 -13.6721 31.0246 16.5761 13.2863 -5.5832 0.0000 0.0000 10.2031 44.1404 3.3139 0.0000 0.0000 0.0000 65.4173 -1.8728 12.6295 -12.6506 19.7781 -3.1124 0.0000 0.0000 11.8956 -16.1120 11.4093 -4.2390 5.5832 0.0000 0.0000 3.7244 -11.3581 2.6696
4.7841 14.0691 13.2960 -19.6675 -61.3878 -17.1166 0.0000 0.0000 0.0000 -17.2057 -3.9782 -5.8674 2.6694 7.4349 22.9174 0.0270 2.0684 -2.0944 0.8688 -3.6729 -10.4765 0.0000 0.0000 0.0000 15.8330 9.2408 -5.1890 -2.9298 -7.9055 24.5491 -0.0397 -7.4850 -2.3235 -0.2921 1.9561 -5.4704 1.3961 -0.5627 7.2094 0.1598 -0.5382 1.2603 -0.6126 -0.2668 -2.5708 1.7828 0.4564 -2.5556 -1.3102 0.9076 15.4388 -0.9104 0.9211 5.1176 0.0000 0.0000 0.0000 -66.6834 -2.9300 23.3343 8.7891 -13.8816 -1.9453 0.0000 0.0000 -13.5941 30.8331 16.4749 13.2056 -5.5487 0.0000 0.0000 10.1416 43.8693 3.2944 0.0000 0.0000 0.0000 65.0118 -1.8591 12.5561 -12.5743 19.6583 -3.0940 0.0000 0.0000 11.8207 -16.0131 11.3375 -4.2126 5.5487 0.0000 0.0000 3.7007 -11.2888 2.6524
4.7801 14.0046 13.2347 -19.2537 -61.5427 -16.7032 0.0000 0.0000 0.0000 -17.1340 -3.9665 -5.8409 2.6584 7.4019 22.8171 0.0271 2.0604 -2.0781 0.8656 -3.6590 -10.4367 0.0000 0.0000 0.0000 15.7594 9.1901 -5.1639 -2.9165 -7.8679 24.4339 -0.0395 -7.4695 -2.3054 -0.2907 1.9546 -5.4661 1.3964 -0.5535 7.1762 0.1604 -0.5262 1.2528 -0.6132 -0.2608 -2.5610 1.7786 0.4772 -2.5517 -1.3159 0.9351 15.3778 -0.9099 0.9329 5.0974 0.0000 0.0000 0.0000 -66.3865 -2.9094 23.2441 8.7520 -13.8221 -1.9377 0.0000 0.0000 -13.5412 30.6916 16.4009 13.1469 -5.5230 0.0000 0.0000 10.0971 43.6701 3.2808 0.0000 0.0000 0.0000 64.7109 -1.8473 12.5051 -12.5192 19.5716 -3.0809 0.0000 0.0000 11.7644 -15.9405 11.2836 -4.1931 5.5230 0.0000 0.0000 3.6827 -11.2382 2.6393
4.7646 13.9203 13.1546 -18.8961 -61.4976 -16.3525 0.0000 0.0000 0.0000 -17.0361 -3.9474 -5.8061 2.6433 7.3582 22.6832 0.0271 2.0491 -2.0606 0.8609 -3.6390 -10.3799 0.0000 0.0000 0.0000 15.6637 9.1285 -5.1318 -2.8991 -7.8195 24.2847 -0.0393 -7.4385 -2.2860 -0.2888 1.9483 -5.4486 1.3930 -0.5452 7.1328 0.1604 -0.5159 1.2440 -0.6120 -0.2557 -2.5470 1.7710 0.4914 -2.5421 -1.3167 0.9531 15.2924 -0.9071 0.9393 5.0690 0.0000 0.0000 0.0000 -65.9930 -2.8864 23.1165 8.7016 -13.7419 -1.9270 0.0000 0.0000 -13.4666 30.5066 16.3032 13.0691 -5.4896 0.0000 0.0000 10.0377 43.4084 3.2621 0.0000 0.0000 0.0000 64.3189 -1.8338 12.4347 -12.4456 19.4562 -3.0631 0.0000 0.0000 11.6919 -15.8451 11.2141 -4.1676 5.4896 0.0000 0.0000 3.6597 -11.1713 2.6226
